<svg xmlns="http://www.w3.org/2000/svg" width="68" height="71" fill="none"><g filter="url(#a)"><path fill="#fff" fill-rule="evenodd" d="m26.764 27.598-6.603 3.788v12.869l4.297 2.455 3.763-2.175c.32.21.745.21 1.1.034.533-.316.746-.982.426-1.508a1.162 1.162 0 0 0-1.527-.42c-.354.21-.567.595-.532.98l-3.23 1.826-2.663-1.508 6.07-3.471 1.066.63 1.598.913 1.064.596 10.721-6.102c.32.21.746.21 1.136 0 .533-.28.71-.947.39-1.472a1.148 1.148 0 0 0-.677-.512 1.163 1.163 0 0 0-.849.09c-.355.211-.532.597-.532.982l-8.307 4.7-1.883 1.087-2.378-1.368-4.402-2.525v-2.84l6.603 3.788.71-.386 10.756-6.137v-.42l-.178-4.21-3.763-2.137c0-.21-.071-.386-.142-.56a1.115 1.115 0 0 0-.47-.445 1.133 1.133 0 0 0-1.236.148 1.105 1.105 0 0 0-.335 1.185c.07.208.2.391.374.526a1.128 1.128 0 0 0 1.241.093v-.034l3.266 1.86.107 2.945-6.213-3.541v-4.107l-10.685-6.1c0-.211-.071-.386-.178-.561-.284-.526-.958-.702-1.49-.421a1.11 1.11 0 0 0-.53.667c-.08.282-.043.585.103.84.146.256.39.444.675.523.287.08.593.043.852-.102v-.033l6.674 3.822 3.513 1.996v7.54l-2.308 1.332v-7.574l-3.514-1.999-6.674-3.787-1.1-.631-4.294 2.454v4.278l-.034.034c-.497.28-.71.947-.39 1.472.15.25.393.434.677.512.285.079.588.046.849-.09a1.103 1.103 0 0 0 .514-.674 1.08 1.08 0 0 0-.124-.835 1.216 1.216 0 0 0-.426-.42v-3.646l2.52-1.436v6.908l-.78.456-1.74.982-1.065.631v12.203h-.034c-.496.316-.71.982-.39 1.508a1.098 1.098 0 0 0 .682.508 1.122 1.122 0 0 0 .845-.123c.532-.28.71-.946.39-1.472a1.215 1.215 0 0 0-.426-.42V29.947l6.639-3.752 2.48 1.402Zm-5.538 4.419 6.07-3.472v2.84l-3.584 2.033v4.7l3.053 1.719-5.538 3.156-.001-10.976Zm9.833.877-2.662-1.508v-4.068l-4.118-2.385-3.053 1.754v-6.523l9.833 5.612v7.118Zm-5.716.84 2.521-1.436 3.55 2.07 4.118-2.35v-3.473l5.714 3.226-9.832 5.435-6.07-3.471Z" clip-rule="evenodd"/></g><defs><filter id="a" width="68" height="70.71" x="0" y="0" color-interpolation-filters="sRGB" filterUnits="userSpaceOnUse"><feFlood flood-opacity="0" result="BackgroundImageFix"/><feColorMatrix in="SourceAlpha" result="hardAlpha" values="0 0 0 0 0 0 0 0 0 0 0 0 0 0 0 0 0 0 127 0"/><feOffset dx="4" dy="4"/><feGaussianBlur stdDeviation="10"/><feComposite in2="hardAlpha" operator="out"/><feColorMatrix values="0 0 0 0 1 0 0 0 0 1 0 0 0 0 1 0 0 0 0.56 0"/><feBlend in2="BackgroundImageFix" result="effect1_dropShadow_2_667"/><feBlend in="SourceGraphic" in2="effect1_dropShadow_2_667" result="shape"/></filter></defs></svg>